# Blender v2.78 (sub 0) OBJ File: ''
# www.blender.org
o Cube
v 1.016157 2.703924 10.136283
v 1.189167 5.881515 12.820092
v 2.776532 5.081668 7.207586
v 2.949542 8.259260 9.891396
v 4.784579 1.447303 11.381174
v 4.957589 4.624895 14.064983
v 6.544953 3.825048 8.452477
v 6.717963 7.002639 11.136287
vn -0.9052 0.3019 -0.2990
vn 0.4229 0.5712 -0.7035
vn 0.9052 -0.3019 0.2990
vn -0.4229 -0.5712 0.7035
vn -0.0416 -0.7633 -0.6447
vn 0.0416 0.7633 0.6447
s off
f 2//1 3//1 1//1
f 4//2 7//2 3//2
f 8//3 5//3 7//3
f 5//4 2//4 1//4
f 7//5 1//5 3//5
f 4//6 6//6 8//6
f 2//1 4//1 3//1
f 4//2 8//2 7//2
f 8//3 6//3 5//3
f 5//4 6//4 2//4
f 7//5 5//5 1//5
f 4//6 2//6 6//6
