# Blender v2.78 (sub 0) OBJ File: ''
# www.blender.org
o box.004
v 5.673391 10.300058 11.591693
v 7.518521 2.345822 11.131632
v 9.338795 7.128309 8.437671
v 5.252909 6.413584 4.408064
v -0.232768 4.802844 10.256042
v 1.587503 9.585334 7.562082
v 3.432637 1.631095 7.102021
v 3.853115 5.517572 14.285654
vn 0.7065 0.1236 0.6968
vn -0.7065 -0.1236 -0.6968
vn 0.6338 -0.5485 -0.5454
vn 0.3148 0.8270 -0.4658
vn -0.3148 -0.8270 0.4658
s 1
f 1//1 2//1 3//1
f 4//2 5//2 6//2
f 3//3 7//3 4//3
f 3//4 6//4 1//4
f 7//5 8//5 5//5
f 1//1 8//1 2//1
f 4//2 7//2 5//2
f 3//3 2//3 7//3
f 3//4 4//4 6//4
f 7//5 2//5 8//5
