# Blender v2.78 (sub 0) OBJ File: ''
# www.blender.org
o box.001
v 5.783838 3.712747 10.997024
v 8.055035 3.005095 8.647113
v 6.719100 1.726038 10.120165
v 7.119774 4.991804 9.523969
v 9.767097 3.092331 10.275552
v 8.831836 5.079036 11.152413
v 8.431162 1.813275 11.748609
v 7.495901 3.799983 12.625466
vn -0.7241 -0.0369 -0.6887
vn 0.5650 0.5410 -0.6230
vn -0.5650 -0.5410 0.6230
vn 0.3956 -0.8402 -0.3709
vn -0.3956 0.8402 0.3709
vn 0.7241 0.0369 0.6887
s off
f 1//1 2//1 3//1
f 4//2 5//2 2//2
f 6//1 7//1 5//1
f 7//3 1//3 3//3
f 5//4 3//4 2//4
f 4//5 8//5 6//5
f 1//1 4//1 2//1
f 4//2 6//2 5//2
f 6//6 8//6 7//6
f 7//3 8//3 1//3
f 5//4 7//4 3//4
f 4//5 1//5 8//5
