# Blender v2.78 (sub 0) OBJ File: ''
# www.blender.org
o Cube
v -1.715703 5.159815 7.464588
v -0.473461 1.178487 5.850317
v -1.661248 1.160189 7.459301
v -0.527917 5.178113 5.855603
v 1.135396 1.198822 7.038241
v 1.080941 5.198448 7.043528
v -0.052390 1.180525 8.647225
v -0.106846 5.180150 8.652512
vn -0.8044 -0.0102 -0.5940
vn 0.5939 0.0091 -0.8045
vn 0.8044 0.0102 0.5940
vn -0.5939 -0.0091 0.8045
vn 0.0136 -0.9999 -0.0013
vn -0.0136 0.9999 0.0013
s 1
f 1//1 2//1 3//1
f 4//2 5//2 2//2
f 6//3 7//3 5//3
f 8//4 3//4 7//4
f 5//5 3//5 2//5
f 4//6 8//6 6//6
f 1//1 4//1 2//1
f 4//2 6//2 5//2
f 6//3 8//3 7//3
f 8//4 1//4 3//4
f 5//5 7//5 3//5
f 4//6 1//6 8//6
