####
#
# OBJ File Generated by Meshlab
#
####
# Object box.obj
#
# Vertices: 8
# Faces: 12
#
####
vn -0.742788 0.285209 0.605740
v 2.346076 3.986561 11.876640
vn -0.302489 0.063350 -0.951045
v 3.247664 3.532266 8.688860
vn -0.790778 -0.596184 -0.138690
v 2.247810 2.181759 10.352295
vn -0.254499 0.944743 -0.206616
v 3.345930 5.337068 10.213205
vn 0.742788 -0.285209 -0.605740
v 5.388044 2.818533 9.395930
vn 0.790778 0.596184 0.138690
v 5.486310 4.623335 10.920276
vn 0.254500 -0.944743 0.206616
v 4.388191 1.468026 11.059366
vn 0.302489 -0.063350 0.951045
v 4.486457 3.272828 12.583711
# 8 vertices, 0 vertices normals

f 1//1 2//2 3//3
f 4//4 5//5 2//2
f 6//6 7//7 5//5
f 7//7 1//1 3//3
f 5//5 3//3 2//2
f 4//4 8//8 6//6
f 1//1 4//4 2//2
f 4//4 6//6 5//5
f 6//6 8//8 7//7
f 7//7 8//8 1//1
f 5//5 7//7 3//3
f 4//4 1//1 8//8
# 12 faces, 0 coords texture

# End of File
