# Blender v2.78 (sub 0) OBJ File: ''
# www.blender.org
o Cube
v 5.088052 3.986559 11.876641
v 5.989640 3.532264 8.688861
v 4.989786 2.181757 10.352295
v 6.087906 5.337067 10.213206
v 8.130020 2.818532 9.395930
v 8.228286 4.623333 10.920277
v 7.130167 1.468024 11.059366
v 7.228433 3.272826 12.583712
vn -0.9052 0.3019 -0.2990
vn 0.4229 0.5712 -0.7035
vn 0.9052 -0.3019 0.2990
vn -0.4229 -0.5712 0.7035
vn -0.0416 -0.7633 -0.6447
vn 0.0416 0.7633 0.6447
s 1
f 1//1 2//1 3//1
f 4//2 5//2 2//2
f 6//3 7//3 5//3
f 7//4 1//4 3//4
f 5//5 3//5 2//5
f 4//6 8//6 6//6
f 1//1 4//1 2//1
f 4//2 6//2 5//2
f 6//3 8//3 7//3
f 7//4 8//4 1//4
f 5//5 7//5 3//5
f 4//6 1//6 8//6
